<svg xmlns="http://www.w3.org/2000/svg" xmlns:xlink="http://www.w3.org/1999/xlink" width="500" zoomAndPan="magnify" viewBox="0 0 375 374.999991" height="500" preserveAspectRatio="xMidYMid meet" version="1.0"><defs><clipPath id="4d633c7dbe"><path d="M 31.875 0 L 337.875 0 L 337.875 375 L 31.875 375 Z M 31.875 0 " clip-rule="nonzero"/></clipPath><clipPath id="85eb0ab978"><path d="M 248.484375 131.25 L 313.652344 131.25 L 313.652344 353.703125 L 248.484375 353.703125 Z M 248.484375 131.25 " clip-rule="nonzero"/></clipPath><clipPath id="dbd3a84c0c"><path d="M 237 131.25 L 313 131.25 L 313 216 L 237 216 Z M 237 131.25 " clip-rule="nonzero"/></clipPath><clipPath id="1f4efe985b"><path d="M 270.179688 212.371094 L 279.929688 212.371094 L 279.929688 258.871094 L 270.179688 258.871094 Z M 270.179688 212.371094 " clip-rule="nonzero"/></clipPath><clipPath id="bb8facc914"><path d="M 270.179688 255.046875 L 279.929688 255.046875 L 279.929688 301.546875 L 270.179688 301.546875 Z M 270.179688 255.046875 " clip-rule="nonzero"/></clipPath><clipPath id="7b5cafe3e6"><path d="M 270.179688 297.890625 L 279.929688 297.890625 L 279.929688 344.390625 L 270.179688 344.390625 Z M 270.179688 297.890625 " clip-rule="nonzero"/></clipPath></defs><rect x="-37.5" width="450" fill="#ffffff" y="-37.499999" height="449.999989" fill-opacity="1"/><rect x="-37.5" width="450" fill="#ffffff" y="-37.499999" height="449.999989" fill-opacity="1"/><g clip-path="url(#4d633c7dbe)"><path fill="#000000" d="M 330.886719 375 C 331.34375 375 331.796875 374.957031 332.242188 374.867188 C 332.691406 374.777344 333.125 374.644531 333.546875 374.472656 C 333.96875 374.296875 334.371094 374.082031 334.75 373.828125 C 335.128906 373.578125 335.480469 373.289062 335.804688 372.964844 C 336.125 372.644531 336.414062 372.292969 336.667969 371.914062 C 336.921875 371.535156 337.136719 371.132812 337.3125 370.714844 C 337.484375 370.292969 337.617188 369.859375 337.707031 369.410156 C 337.796875 368.964844 337.839844 368.511719 337.839844 368.054688 L 337.839844 6.945312 C 337.839844 6.488281 337.796875 6.035156 337.707031 5.589844 C 337.617188 5.140625 337.484375 4.707031 337.3125 4.285156 C 337.136719 3.867188 336.921875 3.464844 336.667969 3.085938 C 336.414062 2.707031 336.125 2.355469 335.804688 2.035156 C 335.480469 1.710938 335.128906 1.421875 334.75 1.171875 C 334.371094 0.917969 333.96875 0.703125 333.546875 0.527344 C 333.125 0.355469 332.691406 0.222656 332.242188 0.132812 C 331.796875 0.0429688 331.34375 0 330.886719 0 L 38.863281 0 C 38.40625 0 37.953125 0.0429688 37.507812 0.132812 C 37.058594 0.222656 36.625 0.355469 36.203125 0.527344 C 35.78125 0.703125 35.378906 0.917969 35 1.171875 C 34.621094 1.421875 34.269531 1.710938 33.945312 2.035156 C 33.625 2.355469 33.335938 2.707031 33.082031 3.085938 C 32.828125 3.464844 32.613281 3.867188 32.4375 4.285156 C 32.265625 4.707031 32.132812 5.140625 32.042969 5.589844 C 31.953125 6.035156 31.910156 6.488281 31.910156 6.945312 L 31.910156 368.054688 C 31.910156 368.511719 31.953125 368.964844 32.042969 369.410156 C 32.132812 369.859375 32.265625 370.292969 32.4375 370.714844 C 32.613281 371.132812 32.828125 371.535156 33.082031 371.914062 C 33.335938 372.292969 33.625 372.644531 33.945312 372.964844 C 34.269531 373.289062 34.621094 373.578125 35 373.828125 C 35.378906 374.082031 35.78125 374.296875 36.203125 374.472656 C 36.625 374.644531 37.058594 374.777344 37.507812 374.867188 C 37.953125 374.957031 38.40625 375 38.863281 375 Z M 45.816406 13.890625 L 323.933594 13.890625 L 323.933594 361.109375 L 45.816406 361.109375 Z M 45.816406 13.890625 " fill-opacity="1" fill-rule="nonzero"/></g><path fill="#000000" d="M 303.074219 27.777344 L 66.675781 27.777344 C 66.21875 27.777344 65.765625 27.820312 65.316406 27.910156 C 64.871094 28 64.4375 28.132812 64.015625 28.304688 C 63.59375 28.480469 63.191406 28.695312 62.8125 28.949219 C 62.433594 29.203125 62.082031 29.488281 61.757812 29.8125 C 61.433594 30.132812 61.148438 30.484375 60.894531 30.863281 C 60.640625 31.242188 60.425781 31.644531 60.25 32.066406 C 60.078125 32.484375 59.945312 32.921875 59.855469 33.367188 C 59.765625 33.816406 59.722656 34.265625 59.722656 34.722656 L 59.722656 104.167969 C 59.722656 104.621094 59.765625 105.074219 59.855469 105.519531 C 59.945312 105.96875 60.074219 106.402344 60.25 106.824219 C 60.425781 107.246094 60.640625 107.644531 60.894531 108.023438 C 61.148438 108.402344 61.433594 108.753906 61.757812 109.078125 C 62.082031 109.398438 62.433594 109.6875 62.8125 109.941406 C 63.191406 110.195312 63.59375 110.40625 64.015625 110.582031 C 64.4375 110.757812 64.871094 110.890625 65.316406 110.976562 C 65.765625 111.066406 66.21875 111.109375 66.675781 111.109375 L 303.074219 111.109375 C 303.53125 111.109375 303.984375 111.066406 304.433594 110.976562 C 304.878906 110.890625 305.3125 110.757812 305.734375 110.582031 C 306.15625 110.40625 306.558594 110.195312 306.9375 109.941406 C 307.316406 109.6875 307.667969 109.398438 307.992188 109.078125 C 308.316406 108.753906 308.601562 108.402344 308.855469 108.023438 C 309.109375 107.644531 309.324219 107.246094 309.5 106.824219 C 309.671875 106.402344 309.804688 105.96875 309.894531 105.519531 C 309.984375 105.074219 310.027344 104.621094 310.027344 104.167969 L 310.027344 34.722656 C 310.027344 34.265625 309.984375 33.816406 309.894531 33.367188 C 309.804688 32.921875 309.671875 32.484375 309.5 32.066406 C 309.324219 31.644531 309.109375 31.242188 308.855469 30.863281 C 308.601562 30.484375 308.316406 30.132812 307.992188 29.8125 C 307.667969 29.488281 307.316406 29.203125 306.9375 28.949219 C 306.558594 28.695312 306.15625 28.480469 305.734375 28.304688 C 305.3125 28.132812 304.878906 28 304.433594 27.910156 C 303.984375 27.820312 303.53125 27.777344 303.074219 27.777344 Z M 296.121094 97.222656 L 73.628906 97.222656 L 73.628906 41.667969 L 296.121094 41.667969 Z M 296.121094 97.222656 " fill-opacity="1" fill-rule="nonzero"/><path fill="#000000" d="M 94.488281 138.890625 L 66.675781 138.890625 C 66.21875 138.890625 65.765625 138.933594 65.316406 139.023438 C 64.871094 139.109375 64.4375 139.242188 64.015625 139.417969 C 63.59375 139.59375 63.191406 139.804688 62.8125 140.058594 C 62.433594 140.3125 62.082031 140.601562 61.757812 140.921875 C 61.433594 141.246094 61.148438 141.597656 60.894531 141.976562 C 60.640625 142.355469 60.425781 142.753906 60.25 143.175781 C 60.078125 143.597656 59.945312 144.03125 59.855469 144.480469 C 59.765625 144.925781 59.722656 145.378906 59.722656 145.832031 L 59.722656 173.609375 C 59.722656 174.066406 59.765625 174.519531 59.855469 174.964844 C 59.945312 175.414062 60.074219 175.847656 60.25 176.269531 C 60.425781 176.691406 60.640625 177.089844 60.894531 177.46875 C 61.148438 177.847656 61.433594 178.199219 61.757812 178.523438 C 62.082031 178.84375 62.433594 179.132812 62.8125 179.386719 C 63.191406 179.636719 63.59375 179.851562 64.015625 180.027344 C 64.4375 180.203125 64.871094 180.332031 65.316406 180.421875 C 65.765625 180.511719 66.21875 180.554688 66.675781 180.554688 L 94.488281 180.554688 C 94.941406 180.554688 95.394531 180.511719 95.84375 180.421875 C 96.289062 180.332031 96.726562 180.203125 97.148438 180.027344 C 97.570312 179.851562 97.96875 179.636719 98.347656 179.386719 C 98.730469 179.132812 99.082031 178.84375 99.402344 178.523438 C 99.726562 178.199219 100.015625 177.847656 100.269531 177.46875 C 100.519531 177.089844 100.734375 176.691406 100.910156 176.269531 C 101.085938 175.847656 101.214844 175.414062 101.304688 174.964844 C 101.394531 174.519531 101.4375 174.066406 101.4375 173.609375 L 101.4375 145.832031 C 101.4375 145.378906 101.394531 144.925781 101.304688 144.480469 C 101.214844 144.03125 101.085938 143.597656 100.910156 143.175781 C 100.734375 142.753906 100.519531 142.355469 100.269531 141.976562 C 100.015625 141.597656 99.726562 141.246094 99.402344 140.921875 C 99.082031 140.601562 98.730469 140.3125 98.347656 140.058594 C 97.96875 139.804688 97.570312 139.59375 97.148438 139.417969 C 96.726562 139.242188 96.289062 139.109375 95.84375 139.023438 C 95.394531 138.933594 94.941406 138.890625 94.488281 138.890625 Z M 87.535156 166.667969 L 73.628906 166.667969 L 73.628906 152.777344 L 87.535156 152.777344 Z M 87.535156 166.667969 " fill-opacity="1" fill-rule="nonzero"/><path fill="#000000" d="M 150.109375 138.890625 L 122.296875 138.890625 C 121.839844 138.890625 121.390625 138.933594 120.941406 139.023438 C 120.492188 139.109375 120.058594 139.242188 119.636719 139.417969 C 119.214844 139.59375 118.816406 139.804688 118.433594 140.058594 C 118.054688 140.3125 117.703125 140.601562 117.382812 140.921875 C 117.058594 141.246094 116.769531 141.597656 116.515625 141.976562 C 116.261719 142.355469 116.050781 142.753906 115.875 143.175781 C 115.699219 143.597656 115.566406 144.03125 115.480469 144.480469 C 115.390625 144.925781 115.34375 145.378906 115.34375 145.832031 L 115.34375 173.609375 C 115.34375 174.066406 115.390625 174.519531 115.480469 174.964844 C 115.566406 175.414062 115.699219 175.847656 115.875 176.269531 C 116.050781 176.691406 116.261719 177.089844 116.515625 177.46875 C 116.769531 177.847656 117.058594 178.199219 117.382812 178.523438 C 117.703125 178.84375 118.054688 179.132812 118.433594 179.386719 C 118.816406 179.636719 119.214844 179.851562 119.636719 180.027344 C 120.058594 180.203125 120.492188 180.332031 120.941406 180.421875 C 121.390625 180.511719 121.839844 180.554688 122.296875 180.554688 L 150.109375 180.554688 C 150.566406 180.554688 151.019531 180.511719 151.464844 180.421875 C 151.914062 180.332031 152.347656 180.203125 152.769531 180.027344 C 153.191406 179.851562 153.59375 179.636719 153.972656 179.386719 C 154.351562 179.132812 154.703125 178.84375 155.027344 178.523438 C 155.347656 178.199219 155.636719 177.847656 155.890625 177.46875 C 156.144531 177.089844 156.359375 176.691406 156.535156 176.269531 C 156.707031 175.847656 156.839844 175.414062 156.929688 174.964844 C 157.019531 174.519531 157.0625 174.066406 157.0625 173.609375 L 157.0625 145.832031 C 157.0625 145.378906 157.019531 144.925781 156.929688 144.480469 C 156.839844 144.03125 156.707031 143.597656 156.535156 143.175781 C 156.359375 142.753906 156.144531 142.355469 155.890625 141.976562 C 155.636719 141.597656 155.347656 141.246094 155.027344 140.921875 C 154.703125 140.601562 154.351562 140.3125 153.972656 140.058594 C 153.59375 139.804688 153.191406 139.59375 152.769531 139.417969 C 152.347656 139.242188 151.914062 139.109375 151.464844 139.023438 C 151.019531 138.933594 150.566406 138.890625 150.109375 138.890625 Z M 143.15625 166.667969 L 129.25 166.667969 L 129.25 152.777344 L 143.15625 152.777344 Z M 143.15625 166.667969 " fill-opacity="1" fill-rule="nonzero"/><path fill="#000000" d="M 94.488281 194.445312 L 66.675781 194.445312 C 66.21875 194.445312 65.765625 194.488281 65.316406 194.578125 C 64.871094 194.667969 64.4375 194.796875 64.015625 194.972656 C 63.59375 195.148438 63.191406 195.363281 62.8125 195.613281 C 62.433594 195.867188 62.082031 196.15625 61.757812 196.476562 C 61.433594 196.800781 61.148438 197.152344 60.894531 197.53125 C 60.640625 197.910156 60.425781 198.308594 60.25 198.730469 C 60.078125 199.152344 59.945312 199.585938 59.855469 200.035156 C 59.765625 200.480469 59.722656 200.933594 59.722656 201.390625 L 59.722656 229.167969 C 59.722656 229.621094 59.765625 230.074219 59.855469 230.519531 C 59.945312 230.96875 60.074219 231.402344 60.25 231.824219 C 60.425781 232.246094 60.640625 232.644531 60.894531 233.023438 C 61.148438 233.402344 61.433594 233.753906 61.757812 234.078125 C 62.082031 234.398438 62.433594 234.6875 62.8125 234.941406 C 63.191406 235.195312 63.59375 235.40625 64.015625 235.582031 C 64.4375 235.757812 64.871094 235.886719 65.316406 235.976562 C 65.765625 236.066406 66.21875 236.109375 66.675781 236.109375 L 94.488281 236.109375 C 94.941406 236.109375 95.394531 236.066406 95.84375 235.976562 C 96.289062 235.886719 96.726562 235.757812 97.148438 235.582031 C 97.570312 235.40625 97.96875 235.195312 98.347656 234.941406 C 98.730469 234.6875 99.082031 234.398438 99.402344 234.078125 C 99.726562 233.753906 100.015625 233.402344 100.269531 233.023438 C 100.519531 232.644531 100.734375 232.246094 100.910156 231.824219 C 101.085938 231.402344 101.214844 230.96875 101.304688 230.519531 C 101.394531 230.074219 101.4375 229.621094 101.4375 229.167969 L 101.4375 201.390625 C 101.4375 200.933594 101.394531 200.480469 101.304688 200.035156 C 101.214844 199.585938 101.085938 199.152344 100.910156 198.730469 C 100.734375 198.308594 100.519531 197.910156 100.269531 197.53125 C 100.015625 197.152344 99.726562 196.800781 99.402344 196.476562 C 99.082031 196.15625 98.730469 195.867188 98.347656 195.613281 C 97.96875 195.363281 97.570312 195.148438 97.148438 194.972656 C 96.726562 194.796875 96.289062 194.667969 95.84375 194.578125 C 95.394531 194.488281 94.941406 194.445312 94.488281 194.445312 Z M 87.535156 222.222656 L 73.628906 222.222656 L 73.628906 208.332031 L 87.535156 208.332031 Z M 87.535156 222.222656 " fill-opacity="1" fill-rule="nonzero"/><path fill="#000000" d="M 150.109375 194.445312 L 122.296875 194.445312 C 121.839844 194.445312 121.390625 194.488281 120.941406 194.578125 C 120.492188 194.667969 120.058594 194.796875 119.636719 194.972656 C 119.214844 195.148438 118.816406 195.363281 118.433594 195.613281 C 118.054688 195.867188 117.703125 196.15625 117.382812 196.476562 C 117.058594 196.800781 116.769531 197.152344 116.515625 197.53125 C 116.261719 197.910156 116.050781 198.308594 115.875 198.730469 C 115.699219 199.152344 115.566406 199.585938 115.480469 200.035156 C 115.390625 200.480469 115.34375 200.933594 115.34375 201.390625 L 115.34375 229.167969 C 115.34375 229.621094 115.390625 230.074219 115.480469 230.519531 C 115.566406 230.96875 115.699219 231.402344 115.875 231.824219 C 116.050781 232.246094 116.261719 232.644531 116.515625 233.023438 C 116.769531 233.402344 117.058594 233.753906 117.382812 234.078125 C 117.703125 234.398438 118.054688 234.6875 118.433594 234.941406 C 118.816406 235.195312 119.214844 235.40625 119.636719 235.582031 C 120.058594 235.757812 120.492188 235.886719 120.941406 235.976562 C 121.390625 236.066406 121.839844 236.109375 122.296875 236.109375 L 150.109375 236.109375 C 150.566406 236.109375 151.019531 236.066406 151.464844 235.976562 C 151.914062 235.886719 152.347656 235.757812 152.769531 235.582031 C 153.191406 235.40625 153.59375 235.195312 153.972656 234.941406 C 154.351562 234.6875 154.703125 234.398438 155.027344 234.078125 C 155.347656 233.753906 155.636719 233.402344 155.890625 233.023438 C 156.144531 232.644531 156.359375 232.246094 156.535156 231.824219 C 156.707031 231.402344 156.839844 230.96875 156.929688 230.519531 C 157.019531 230.074219 157.0625 229.621094 157.0625 229.167969 L 157.0625 201.390625 C 157.0625 200.933594 157.019531 200.480469 156.929688 200.035156 C 156.839844 199.585938 156.707031 199.152344 156.535156 198.730469 C 156.359375 198.308594 156.144531 197.910156 155.890625 197.53125 C 155.636719 197.152344 155.347656 196.800781 155.027344 196.476562 C 154.703125 196.15625 154.351562 195.867188 153.972656 195.613281 C 153.59375 195.363281 153.191406 195.148438 152.769531 194.972656 C 152.347656 194.796875 151.914062 194.667969 151.464844 194.578125 C 151.019531 194.488281 150.566406 194.445312 150.109375 194.445312 Z M 143.15625 222.222656 L 129.25 222.222656 L 129.25 208.332031 L 143.15625 208.332031 Z M 143.15625 222.222656 " fill-opacity="1" fill-rule="nonzero"/><path fill="#000000" d="M 94.488281 250 L 66.675781 250 C 66.21875 250 65.765625 250.042969 65.316406 250.132812 C 64.871094 250.222656 64.4375 250.355469 64.015625 250.527344 C 63.59375 250.703125 63.191406 250.917969 62.8125 251.171875 C 62.433594 251.421875 62.082031 251.710938 61.757812 252.035156 C 61.433594 252.355469 61.148438 252.707031 60.894531 253.085938 C 60.640625 253.464844 60.425781 253.867188 60.25 254.285156 C 60.078125 254.707031 59.945312 255.140625 59.855469 255.589844 C 59.765625 256.035156 59.722656 256.488281 59.722656 256.945312 L 59.722656 284.722656 C 59.722656 285.179688 59.765625 285.628906 59.855469 286.078125 C 59.945312 286.523438 60.074219 286.957031 60.25 287.378906 C 60.425781 287.800781 60.640625 288.199219 60.894531 288.582031 C 61.148438 288.960938 61.433594 289.308594 61.757812 289.632812 C 62.082031 289.953125 62.433594 290.242188 62.8125 290.496094 C 63.191406 290.75 63.59375 290.964844 64.015625 291.136719 C 64.4375 291.3125 64.871094 291.445312 65.316406 291.53125 C 65.765625 291.621094 66.21875 291.667969 66.675781 291.667969 L 94.488281 291.667969 C 94.941406 291.667969 95.394531 291.621094 95.84375 291.53125 C 96.289062 291.445312 96.726562 291.3125 97.148438 291.136719 C 97.570312 290.964844 97.96875 290.75 98.347656 290.496094 C 98.730469 290.242188 99.082031 289.953125 99.402344 289.632812 C 99.726562 289.308594 100.015625 288.960938 100.269531 288.582031 C 100.519531 288.199219 100.734375 287.800781 100.910156 287.378906 C 101.085938 286.957031 101.214844 286.523438 101.304688 286.078125 C 101.394531 285.628906 101.4375 285.179688 101.4375 284.722656 L 101.4375 256.945312 C 101.4375 256.488281 101.394531 256.035156 101.304688 255.589844 C 101.214844 255.140625 101.085938 254.707031 100.910156 254.285156 C 100.734375 253.867188 100.519531 253.464844 100.269531 253.085938 C 100.015625 252.707031 99.726562 252.355469 99.402344 252.035156 C 99.082031 251.710938 98.730469 251.421875 98.347656 251.171875 C 97.96875 250.917969 97.570312 250.703125 97.148438 250.527344 C 96.726562 250.355469 96.289062 250.222656 95.84375 250.132812 C 95.394531 250.042969 94.941406 250 94.488281 250 Z M 87.535156 277.777344 L 73.628906 277.777344 L 73.628906 263.890625 L 87.535156 263.890625 Z M 87.535156 277.777344 " fill-opacity="1" fill-rule="nonzero"/><path fill="#000000" d="M 150.109375 250 L 122.296875 250 C 121.839844 250 121.390625 250.042969 120.941406 250.132812 C 120.492188 250.222656 120.058594 250.355469 119.636719 250.527344 C 119.214844 250.703125 118.816406 250.917969 118.433594 251.171875 C 118.054688 251.421875 117.703125 251.710938 117.382812 252.035156 C 117.058594 252.355469 116.769531 252.707031 116.515625 253.085938 C 116.261719 253.464844 116.050781 253.867188 115.875 254.285156 C 115.699219 254.707031 115.566406 255.140625 115.480469 255.589844 C 115.390625 256.035156 115.34375 256.488281 115.34375 256.945312 L 115.34375 284.722656 C 115.34375 285.179688 115.390625 285.628906 115.480469 286.078125 C 115.566406 286.523438 115.699219 286.957031 115.875 287.378906 C 116.050781 287.800781 116.261719 288.199219 116.515625 288.582031 C 116.769531 288.960938 117.058594 289.308594 117.382812 289.632812 C 117.703125 289.953125 118.054688 290.242188 118.433594 290.496094 C 118.816406 290.75 119.214844 290.964844 119.636719 291.136719 C 120.058594 291.3125 120.492188 291.445312 120.941406 291.53125 C 121.390625 291.621094 121.839844 291.667969 122.296875 291.667969 L 150.109375 291.667969 C 150.566406 291.667969 151.019531 291.621094 151.464844 291.53125 C 151.914062 291.445312 152.347656 291.3125 152.769531 291.136719 C 153.191406 290.964844 153.59375 290.75 153.972656 290.496094 C 154.351562 290.242188 154.703125 289.953125 155.027344 289.632812 C 155.347656 289.308594 155.636719 288.960938 155.890625 288.582031 C 156.144531 288.199219 156.359375 287.800781 156.535156 287.378906 C 156.707031 286.957031 156.839844 286.523438 156.929688 286.078125 C 157.019531 285.628906 157.0625 285.179688 157.0625 284.722656 L 157.0625 256.945312 C 157.0625 256.488281 157.019531 256.035156 156.929688 255.589844 C 156.839844 255.140625 156.707031 254.707031 156.535156 254.285156 C 156.359375 253.867188 156.144531 253.464844 155.890625 253.085938 C 155.636719 252.707031 155.347656 252.355469 155.027344 252.035156 C 154.703125 251.710938 154.351562 251.421875 153.972656 251.171875 C 153.59375 250.917969 153.191406 250.703125 152.769531 250.527344 C 152.347656 250.355469 151.914062 250.222656 151.464844 250.132812 C 151.019531 250.042969 150.566406 250 150.109375 250 Z M 143.15625 277.777344 L 129.25 277.777344 L 129.25 263.890625 L 143.15625 263.890625 Z M 143.15625 277.777344 " fill-opacity="1" fill-rule="nonzero"/><path fill="#000000" d="M 94.488281 305.554688 L 66.675781 305.554688 C 66.21875 305.554688 65.765625 305.601562 65.316406 305.6875 C 64.871094 305.777344 64.4375 305.910156 64.015625 306.085938 C 63.59375 306.257812 63.191406 306.472656 62.8125 306.726562 C 62.433594 306.980469 62.082031 307.265625 61.757812 307.589844 C 61.433594 307.910156 61.148438 308.261719 60.894531 308.640625 C 60.640625 309.019531 60.425781 309.421875 60.25 309.84375 C 60.078125 310.265625 59.945312 310.699219 59.855469 311.144531 C 59.765625 311.59375 59.722656 312.042969 59.722656 312.5 L 59.722656 340.277344 C 59.722656 340.734375 59.765625 341.183594 59.855469 341.632812 C 59.945312 342.078125 60.074219 342.515625 60.25 342.933594 C 60.425781 343.355469 60.640625 343.757812 60.894531 344.136719 C 61.148438 344.515625 61.433594 344.867188 61.757812 345.1875 C 62.082031 345.511719 62.433594 345.796875 62.8125 346.050781 C 63.191406 346.304688 63.59375 346.519531 64.015625 346.695312 C 64.4375 346.867188 64.871094 347 65.316406 347.089844 C 65.765625 347.175781 66.21875 347.222656 66.675781 347.222656 L 94.488281 347.222656 C 94.941406 347.222656 95.394531 347.175781 95.84375 347.089844 C 96.289062 347 96.726562 346.867188 97.148438 346.695312 C 97.570312 346.519531 97.96875 346.304688 98.347656 346.050781 C 98.730469 345.796875 99.082031 345.511719 99.402344 345.1875 C 99.726562 344.867188 100.015625 344.515625 100.269531 344.136719 C 100.519531 343.757812 100.734375 343.355469 100.910156 342.933594 C 101.085938 342.515625 101.214844 342.078125 101.304688 341.632812 C 101.394531 341.183594 101.4375 340.734375 101.4375 340.277344 L 101.4375 312.5 C 101.4375 312.042969 101.394531 311.59375 101.304688 311.144531 C 101.214844 310.699219 101.085938 310.265625 100.910156 309.84375 C 100.734375 309.421875 100.519531 309.019531 100.269531 308.640625 C 100.015625 308.261719 99.726562 307.910156 99.402344 307.589844 C 99.082031 307.265625 98.730469 306.980469 98.347656 306.726562 C 97.96875 306.472656 97.570312 306.257812 97.148438 306.085938 C 96.726562 305.910156 96.289062 305.777344 95.84375 305.6875 C 95.394531 305.601562 94.941406 305.554688 94.488281 305.554688 Z M 87.535156 333.332031 L 73.628906 333.332031 L 73.628906 319.445312 L 87.535156 319.445312 Z M 87.535156 333.332031 " fill-opacity="1" fill-rule="nonzero"/><path fill="#000000" d="M 150.109375 305.554688 L 122.296875 305.554688 C 121.839844 305.554688 121.390625 305.601562 120.941406 305.6875 C 120.492188 305.777344 120.058594 305.910156 119.636719 306.085938 C 119.214844 306.257812 118.816406 306.472656 118.433594 306.726562 C 118.054688 306.980469 117.703125 307.265625 117.382812 307.589844 C 117.058594 307.910156 116.769531 308.261719 116.515625 308.640625 C 116.261719 309.019531 116.050781 309.421875 115.875 309.84375 C 115.699219 310.265625 115.566406 310.699219 115.480469 311.144531 C 115.390625 311.59375 115.34375 312.042969 115.34375 312.5 L 115.34375 340.277344 C 115.34375 340.734375 115.390625 341.183594 115.480469 341.632812 C 115.566406 342.078125 115.699219 342.515625 115.875 342.933594 C 116.050781 343.355469 116.261719 343.757812 116.515625 344.136719 C 116.769531 344.515625 117.058594 344.867188 117.382812 345.1875 C 117.703125 345.511719 118.054688 345.796875 118.433594 346.050781 C 118.816406 346.304688 119.214844 346.519531 119.636719 346.695312 C 120.058594 346.867188 120.492188 347 120.941406 347.089844 C 121.390625 347.175781 121.839844 347.222656 122.296875 347.222656 L 150.109375 347.222656 C 150.566406 347.222656 151.019531 347.175781 151.464844 347.089844 C 151.914062 347 152.347656 346.867188 152.769531 346.695312 C 153.191406 346.519531 153.59375 346.304688 153.972656 346.050781 C 154.351562 345.796875 154.703125 345.511719 155.027344 345.1875 C 155.347656 344.867188 155.636719 344.515625 155.890625 344.136719 C 156.144531 343.757812 156.359375 343.355469 156.535156 342.933594 C 156.707031 342.515625 156.839844 342.078125 156.929688 341.632812 C 157.019531 341.183594 157.0625 340.734375 157.0625 340.277344 L 157.0625 312.5 C 157.0625 312.042969 157.019531 311.59375 156.929688 311.144531 C 156.839844 310.699219 156.707031 310.265625 156.535156 309.84375 C 156.359375 309.421875 156.144531 309.019531 155.890625 308.640625 C 155.636719 308.261719 155.347656 307.910156 155.027344 307.589844 C 154.703125 307.265625 154.351562 306.980469 153.972656 306.726562 C 153.59375 306.472656 153.191406 306.257812 152.769531 306.085938 C 152.347656 305.910156 151.914062 305.777344 151.464844 305.6875 C 151.019531 305.601562 150.566406 305.554688 150.109375 305.554688 Z M 143.15625 333.332031 L 129.25 333.332031 L 129.25 319.445312 L 143.15625 319.445312 Z M 143.15625 333.332031 " fill-opacity="1" fill-rule="nonzero"/><path fill="#000000" d="M 205.734375 138.890625 L 177.921875 138.890625 C 177.464844 138.890625 177.011719 138.933594 176.566406 139.023438 C 176.117188 139.109375 175.683594 139.242188 175.261719 139.417969 C 174.839844 139.59375 174.4375 139.804688 174.058594 140.058594 C 173.679688 140.3125 173.328125 140.601562 173.003906 140.921875 C 172.683594 141.246094 172.394531 141.597656 172.140625 141.976562 C 171.886719 142.355469 171.671875 142.753906 171.5 143.175781 C 171.324219 143.597656 171.191406 144.03125 171.101562 144.480469 C 171.011719 144.925781 170.96875 145.378906 170.96875 145.832031 L 170.96875 173.609375 C 170.96875 174.066406 171.011719 174.519531 171.101562 174.964844 C 171.191406 175.414062 171.324219 175.847656 171.5 176.269531 C 171.671875 176.691406 171.886719 177.089844 172.140625 177.46875 C 172.394531 177.847656 172.683594 178.199219 173.003906 178.523438 C 173.328125 178.84375 173.679688 179.132812 174.058594 179.386719 C 174.4375 179.636719 174.839844 179.851562 175.261719 180.027344 C 175.683594 180.203125 176.117188 180.332031 176.566406 180.421875 C 177.011719 180.511719 177.464844 180.554688 177.921875 180.554688 L 205.734375 180.554688 C 206.191406 180.554688 206.640625 180.511719 207.089844 180.421875 C 207.539062 180.332031 207.972656 180.203125 208.394531 180.027344 C 208.816406 179.851562 209.21875 179.636719 209.597656 179.386719 C 209.976562 179.132812 210.328125 178.84375 210.648438 178.523438 C 210.972656 178.199219 211.261719 177.847656 211.515625 177.46875 C 211.769531 177.089844 211.984375 176.691406 212.15625 176.269531 C 212.332031 175.847656 212.464844 175.414062 212.554688 174.964844 C 212.640625 174.519531 212.6875 174.066406 212.6875 173.609375 L 212.6875 145.832031 C 212.6875 145.378906 212.640625 144.925781 212.554688 144.480469 C 212.464844 144.03125 212.332031 143.597656 212.15625 143.175781 C 211.984375 142.753906 211.769531 142.355469 211.515625 141.976562 C 211.261719 141.597656 210.972656 141.246094 210.648438 140.921875 C 210.328125 140.601562 209.976562 140.3125 209.597656 140.058594 C 209.21875 139.804688 208.816406 139.59375 208.394531 139.417969 C 207.972656 139.242188 207.539062 139.109375 207.089844 139.023438 C 206.640625 138.933594 206.191406 138.890625 205.734375 138.890625 Z M 198.78125 166.667969 L 184.875 166.667969 L 184.875 152.777344 L 198.78125 152.777344 Z M 198.78125 166.667969 " fill-opacity="1" fill-rule="nonzero"/><path fill="#000000" d="M 205.734375 194.445312 L 177.921875 194.445312 C 177.464844 194.445312 177.011719 194.488281 176.566406 194.578125 C 176.117188 194.667969 175.683594 194.796875 175.261719 194.972656 C 174.839844 195.148438 174.4375 195.363281 174.058594 195.613281 C 173.679688 195.867188 173.328125 196.15625 173.003906 196.476562 C 172.683594 196.800781 172.394531 197.152344 172.140625 197.53125 C 171.886719 197.910156 171.671875 198.308594 171.5 198.730469 C 171.324219 199.152344 171.191406 199.585938 171.101562 200.035156 C 171.011719 200.480469 170.96875 200.933594 170.96875 201.390625 L 170.96875 229.167969 C 170.96875 229.621094 171.011719 230.074219 171.101562 230.519531 C 171.191406 230.96875 171.324219 231.402344 171.5 231.824219 C 171.671875 232.246094 171.886719 232.644531 172.140625 233.023438 C 172.394531 233.402344 172.683594 233.753906 173.003906 234.078125 C 173.328125 234.398438 173.679688 234.6875 174.058594 234.941406 C 174.4375 235.195312 174.839844 235.40625 175.261719 235.582031 C 175.683594 235.757812 176.117188 235.886719 176.566406 235.976562 C 177.011719 236.066406 177.464844 236.109375 177.921875 236.109375 L 205.734375 236.109375 C 206.191406 236.109375 206.640625 236.066406 207.089844 235.976562 C 207.539062 235.886719 207.972656 235.757812 208.394531 235.582031 C 208.816406 235.40625 209.21875 235.195312 209.597656 234.941406 C 209.976562 234.6875 210.328125 234.398438 210.648438 234.078125 C 210.972656 233.753906 211.261719 233.402344 211.515625 233.023438 C 211.769531 232.644531 211.984375 232.246094 212.15625 231.824219 C 212.332031 231.402344 212.464844 230.96875 212.554688 230.519531 C 212.640625 230.074219 212.6875 229.621094 212.6875 229.167969 L 212.6875 201.390625 C 212.6875 200.933594 212.640625 200.480469 212.554688 200.035156 C 212.464844 199.585938 212.332031 199.152344 212.15625 198.730469 C 211.984375 198.308594 211.769531 197.910156 211.515625 197.53125 C 211.261719 197.152344 210.972656 196.800781 210.648438 196.476562 C 210.328125 196.15625 209.976562 195.867188 209.597656 195.613281 C 209.21875 195.363281 208.816406 195.148438 208.394531 194.972656 C 207.972656 194.796875 207.539062 194.667969 207.089844 194.578125 C 206.640625 194.488281 206.191406 194.445312 205.734375 194.445312 Z M 198.78125 222.222656 L 184.875 222.222656 L 184.875 208.332031 L 198.78125 208.332031 Z M 198.78125 222.222656 " fill-opacity="1" fill-rule="nonzero"/><path fill="#000000" d="M 205.734375 250 L 177.921875 250 C 177.464844 250 177.011719 250.042969 176.566406 250.132812 C 176.117188 250.222656 175.683594 250.355469 175.261719 250.527344 C 174.839844 250.703125 174.4375 250.917969 174.058594 251.171875 C 173.679688 251.421875 173.328125 251.710938 173.003906 252.035156 C 172.683594 252.355469 172.394531 252.707031 172.140625 253.085938 C 171.886719 253.464844 171.671875 253.867188 171.5 254.285156 C 171.324219 254.707031 171.191406 255.140625 171.101562 255.589844 C 171.011719 256.035156 170.96875 256.488281 170.96875 256.945312 L 170.96875 284.722656 C 170.96875 285.179688 171.011719 285.628906 171.101562 286.078125 C 171.191406 286.523438 171.324219 286.957031 171.5 287.378906 C 171.671875 287.800781 171.886719 288.199219 172.140625 288.582031 C 172.394531 288.960938 172.683594 289.308594 173.003906 289.632812 C 173.328125 289.953125 173.679688 290.242188 174.058594 290.496094 C 174.4375 290.75 174.839844 290.964844 175.261719 291.136719 C 175.683594 291.3125 176.117188 291.445312 176.566406 291.53125 C 177.011719 291.621094 177.464844 291.667969 177.921875 291.667969 L 205.734375 291.667969 C 206.191406 291.667969 206.640625 291.621094 207.089844 291.53125 C 207.539062 291.445312 207.972656 291.3125 208.394531 291.136719 C 208.816406 290.964844 209.21875 290.75 209.597656 290.496094 C 209.976562 290.242188 210.328125 289.953125 210.648438 289.632812 C 210.972656 289.308594 211.261719 288.960938 211.515625 288.582031 C 211.769531 288.199219 211.984375 287.800781 212.15625 287.378906 C 212.332031 286.957031 212.464844 286.523438 212.554688 286.078125 C 212.640625 285.628906 212.6875 285.179688 212.6875 284.722656 L 212.6875 256.945312 C 212.6875 256.488281 212.640625 256.035156 212.554688 255.589844 C 212.464844 255.140625 212.332031 254.707031 212.15625 254.285156 C 211.984375 253.867188 211.769531 253.464844 211.515625 253.085938 C 211.261719 252.707031 210.972656 252.355469 210.648438 252.035156 C 210.328125 251.710938 209.976562 251.421875 209.597656 251.171875 C 209.21875 250.917969 208.816406 250.703125 208.394531 250.527344 C 207.972656 250.355469 207.539062 250.222656 207.089844 250.132812 C 206.640625 250.042969 206.191406 250 205.734375 250 Z M 198.78125 277.777344 L 184.875 277.777344 L 184.875 263.890625 L 198.78125 263.890625 Z M 198.78125 277.777344 " fill-opacity="1" fill-rule="nonzero"/><path fill="#000000" d="M 205.734375 305.554688 L 177.921875 305.554688 C 177.464844 305.554688 177.011719 305.601562 176.566406 305.6875 C 176.117188 305.777344 175.683594 305.910156 175.261719 306.085938 C 174.839844 306.257812 174.4375 306.472656 174.058594 306.726562 C 173.679688 306.980469 173.328125 307.265625 173.003906 307.589844 C 172.683594 307.910156 172.394531 308.261719 172.140625 308.640625 C 171.886719 309.019531 171.671875 309.421875 171.5 309.84375 C 171.324219 310.265625 171.191406 310.699219 171.101562 311.144531 C 171.011719 311.59375 170.96875 312.042969 170.96875 312.5 L 170.96875 340.277344 C 170.96875 340.734375 171.011719 341.183594 171.101562 341.632812 C 171.191406 342.078125 171.324219 342.515625 171.5 342.933594 C 171.671875 343.355469 171.886719 343.757812 172.140625 344.136719 C 172.394531 344.515625 172.683594 344.867188 173.003906 345.1875 C 173.328125 345.511719 173.679688 345.796875 174.058594 346.050781 C 174.4375 346.304688 174.839844 346.519531 175.261719 346.695312 C 175.683594 346.867188 176.117188 347 176.566406 347.089844 C 177.011719 347.175781 177.464844 347.222656 177.921875 347.222656 L 205.734375 347.222656 C 206.191406 347.222656 206.640625 347.175781 207.089844 347.089844 C 207.539062 347 207.972656 346.867188 208.394531 346.695312 C 208.816406 346.519531 209.21875 346.304688 209.597656 346.050781 C 209.976562 345.796875 210.328125 345.511719 210.648438 345.1875 C 210.972656 344.867188 211.261719 344.515625 211.515625 344.136719 C 211.769531 343.757812 211.984375 343.355469 212.15625 342.933594 C 212.332031 342.515625 212.464844 342.078125 212.554688 341.632812 C 212.640625 341.183594 212.6875 340.734375 212.6875 340.277344 L 212.6875 312.5 C 212.6875 312.042969 212.640625 311.59375 212.554688 311.144531 C 212.464844 310.699219 212.332031 310.265625 212.15625 309.84375 C 211.984375 309.421875 211.769531 309.019531 211.515625 308.640625 C 211.261719 308.261719 210.972656 307.910156 210.648438 307.589844 C 210.328125 307.265625 209.976562 306.980469 209.597656 306.726562 C 209.21875 306.472656 208.816406 306.257812 208.394531 306.085938 C 207.972656 305.910156 207.539062 305.777344 207.089844 305.6875 C 206.640625 305.601562 206.191406 305.554688 205.734375 305.554688 Z M 198.78125 333.332031 L 184.875 333.332031 L 184.875 319.445312 L 198.78125 319.445312 Z M 198.78125 333.332031 " fill-opacity="1" fill-rule="nonzero"/><path fill="#000000" d="M 303.074219 152.777344 L 289.167969 152.777344 L 289.167969 138.890625 C 289.167969 138.433594 289.125 137.980469 289.035156 137.535156 C 288.945312 137.085938 288.816406 136.652344 288.640625 136.230469 C 288.464844 135.808594 288.25 135.410156 287.996094 135.03125 C 287.742188 134.652344 287.457031 134.300781 287.132812 133.976562 C 286.808594 133.65625 286.457031 133.367188 286.078125 133.113281 C 285.699219 132.863281 285.300781 132.648438 284.878906 132.472656 C 284.457031 132.296875 284.019531 132.167969 283.574219 132.078125 C 283.125 131.988281 282.671875 131.945312 282.214844 131.945312 C 281.761719 131.945312 281.308594 131.988281 280.859375 132.078125 C 280.414062 132.167969 279.976562 132.296875 279.554688 132.472656 C 279.132812 132.648438 278.734375 132.863281 278.355469 133.113281 C 277.972656 133.367188 277.621094 133.65625 277.300781 133.976562 C 276.976562 134.300781 276.6875 134.652344 276.433594 135.03125 C 276.179688 135.410156 275.96875 135.808594 275.792969 136.230469 C 275.617188 136.652344 275.484375 137.085938 275.398438 137.535156 C 275.308594 137.980469 275.261719 138.433594 275.261719 138.890625 L 275.261719 152.777344 L 261.359375 152.777344 C 260.902344 152.777344 260.449219 152.820312 260 152.910156 C 259.554688 153 259.117188 153.132812 258.695312 153.304688 C 258.273438 153.480469 257.875 153.695312 257.496094 153.949219 C 257.113281 154.203125 256.765625 154.488281 256.441406 154.8125 C 256.117188 155.132812 255.828125 155.484375 255.578125 155.863281 C 255.324219 156.242188 255.109375 156.644531 254.933594 157.066406 C 254.757812 157.484375 254.628906 157.921875 254.539062 158.367188 C 254.449219 158.816406 254.40625 159.265625 254.40625 159.722656 C 254.40625 160.179688 254.449219 160.628906 254.539062 161.078125 C 254.628906 161.523438 254.757812 161.957031 254.933594 162.378906 C 255.109375 162.800781 255.324219 163.199219 255.578125 163.582031 C 255.828125 163.960938 256.117188 164.308594 256.441406 164.632812 C 256.765625 164.953125 257.113281 165.242188 257.496094 165.496094 C 257.875 165.75 258.273438 165.964844 258.695312 166.136719 C 259.117188 166.3125 259.554688 166.445312 260 166.53125 C 260.449219 166.621094 260.902344 166.667969 261.359375 166.667969 L 275.261719 166.667969 L 275.261719 180.554688 C 275.261719 181.011719 275.308594 181.464844 275.398438 181.910156 C 275.484375 182.359375 275.617188 182.792969 275.792969 183.214844 C 275.96875 183.632812 276.179688 184.035156 276.433594 184.414062 C 276.6875 184.792969 276.976562 185.144531 277.300781 185.464844 C 277.621094 185.789062 277.972656 186.078125 278.355469 186.328125 C 278.734375 186.582031 279.132812 186.796875 279.554688 186.972656 C 279.976562 187.144531 280.414062 187.277344 280.859375 187.367188 C 281.308594 187.457031 281.761719 187.5 282.214844 187.5 C 282.671875 187.5 283.125 187.457031 283.574219 187.367188 C 284.019531 187.277344 284.457031 187.144531 284.878906 186.972656 C 285.300781 186.796875 285.699219 186.582031 286.078125 186.328125 C 286.457031 186.078125 286.808594 185.789062 287.132812 185.464844 C 287.457031 185.144531 287.742188 184.792969 287.996094 184.414062 C 288.25 184.035156 288.464844 183.632812 288.640625 183.214844 C 288.816406 182.792969 288.945312 182.359375 289.035156 181.910156 C 289.125 181.464844 289.167969 181.011719 289.167969 180.554688 L 289.167969 166.667969 L 303.074219 166.667969 C 303.53125 166.667969 303.984375 166.621094 304.433594 166.53125 C 304.878906 166.445312 305.3125 166.3125 305.734375 166.136719 C 306.15625 165.964844 306.558594 165.75 306.9375 165.496094 C 307.316406 165.242188 307.667969 164.953125 307.992188 164.632812 C 308.316406 164.308594 308.601562 163.960938 308.855469 163.582031 C 309.109375 163.199219 309.324219 162.800781 309.5 162.378906 C 309.671875 161.957031 309.804688 161.523438 309.894531 161.078125 C 309.984375 160.628906 310.027344 160.179688 310.027344 159.722656 C 310.027344 159.265625 309.984375 158.816406 309.894531 158.367188 C 309.804688 157.921875 309.671875 157.484375 309.5 157.066406 C 309.324219 156.644531 309.109375 156.242188 308.855469 155.863281 C 308.601562 155.484375 308.316406 155.132812 307.992188 154.8125 C 307.667969 154.488281 307.316406 154.203125 306.9375 153.949219 C 306.558594 153.695312 306.15625 153.480469 305.734375 153.304688 C 305.3125 153.132812 304.878906 153 304.433594 152.910156 C 303.984375 152.820312 303.53125 152.777344 303.074219 152.777344 Z M 303.074219 152.777344 " fill-opacity="1" fill-rule="nonzero"/><path fill="#000000" d="M 262.539062 276.597656 C 263.195312 277.246094 263.953125 277.746094 264.808594 278.09375 C 265.664062 278.445312 266.550781 278.617188 267.476562 278.609375 C 268.398438 278.617188 269.289062 278.445312 270.144531 278.09375 C 271 277.746094 271.757812 277.246094 272.414062 276.597656 L 282.214844 266.734375 L 292.019531 276.597656 C 292.675781 277.246094 293.433594 277.746094 294.289062 278.09375 C 295.144531 278.445312 296.03125 278.617188 296.957031 278.609375 C 297.878906 278.617188 298.769531 278.445312 299.625 278.09375 C 300.480469 277.746094 301.238281 277.246094 301.894531 276.597656 C 302.21875 276.273438 302.511719 275.921875 302.765625 275.542969 C 303.023438 275.164062 303.238281 274.761719 303.414062 274.335938 C 303.589844 273.914062 303.726562 273.476562 303.816406 273.027344 C 303.90625 272.578125 303.949219 272.125 303.949219 271.667969 C 303.949219 271.207031 303.90625 270.753906 303.816406 270.304688 C 303.726562 269.855469 303.589844 269.417969 303.414062 268.996094 C 303.238281 268.574219 303.023438 268.171875 302.765625 267.789062 C 302.511719 267.410156 302.21875 267.058594 301.894531 266.734375 L 292.019531 256.945312 L 301.894531 247.152344 C 302.21875 246.828125 302.507812 246.476562 302.761719 246.097656 C 303.015625 245.714844 303.230469 245.3125 303.40625 244.890625 C 303.578125 244.46875 303.710938 244.03125 303.800781 243.582031 C 303.890625 243.132812 303.933594 242.679688 303.933594 242.222656 C 303.933594 241.765625 303.890625 241.3125 303.800781 240.863281 C 303.710938 240.414062 303.578125 239.980469 303.402344 239.554688 C 303.226562 239.132812 303.011719 238.730469 302.757812 238.351562 C 302.503906 237.972656 302.214844 237.617188 301.890625 237.296875 C 301.566406 236.972656 301.214844 236.683594 300.832031 236.429688 C 300.453125 236.175781 300.050781 235.960938 299.625 235.785156 C 299.203125 235.609375 298.765625 235.476562 298.316406 235.386719 C 297.867188 235.296875 297.414062 235.253906 296.957031 235.253906 C 296.496094 235.253906 296.042969 235.296875 295.59375 235.386719 C 295.144531 235.476562 294.707031 235.609375 294.285156 235.78125 C 293.863281 235.957031 293.460938 236.171875 293.078125 236.425781 C 292.695312 236.679688 292.34375 236.96875 292.019531 237.292969 L 282.214844 247.152344 L 272.414062 237.292969 C 272.089844 236.96875 271.734375 236.679688 271.355469 236.425781 C 270.972656 236.171875 270.570312 235.957031 270.148438 235.78125 C 269.722656 235.609375 269.289062 235.476562 268.839844 235.386719 C 268.390625 235.296875 267.9375 235.253906 267.476562 235.253906 C 267.019531 235.253906 266.566406 235.296875 266.117188 235.386719 C 265.667969 235.476562 265.230469 235.609375 264.808594 235.785156 C 264.382812 235.960938 263.980469 236.175781 263.601562 236.429688 C 263.21875 236.683594 262.867188 236.972656 262.542969 237.296875 C 262.21875 237.617188 261.929688 237.972656 261.675781 238.351562 C 261.421875 238.730469 261.207031 239.132812 261.03125 239.554688 C 260.855469 239.980469 260.722656 240.414062 260.632812 240.863281 C 260.542969 241.3125 260.5 241.765625 260.5 242.222656 C 260.5 242.679688 260.542969 243.132812 260.632812 243.582031 C 260.722656 244.03125 260.851562 244.46875 261.027344 244.890625 C 261.203125 245.3125 261.417969 245.714844 261.671875 246.097656 C 261.925781 246.476562 262.214844 246.828125 262.539062 247.152344 L 272.414062 256.945312 L 262.539062 266.734375 C 262.214844 267.058594 261.921875 267.410156 261.667969 267.789062 C 261.410156 268.171875 261.195312 268.574219 261.019531 268.996094 C 260.839844 269.417969 260.707031 269.855469 260.617188 270.304688 C 260.527344 270.753906 260.484375 271.207031 260.484375 271.667969 C 260.484375 272.125 260.527344 272.578125 260.617188 273.027344 C 260.707031 273.476562 260.839844 273.914062 261.019531 274.335938 C 261.195312 274.761719 261.410156 275.164062 261.667969 275.542969 C 261.921875 275.921875 262.214844 276.273438 262.539062 276.597656 Z M 262.539062 276.597656 " fill-opacity="1" fill-rule="nonzero"/><path fill="#000000" d="M 303.074219 201.390625 L 261.359375 201.390625 C 260.902344 201.390625 260.449219 201.433594 260 201.523438 C 259.554688 201.609375 259.117188 201.742188 258.695312 201.917969 C 258.273438 202.09375 257.875 202.304688 257.496094 202.558594 C 257.113281 202.8125 256.765625 203.101562 256.441406 203.421875 C 256.117188 203.746094 255.828125 204.097656 255.578125 204.476562 C 255.324219 204.855469 255.109375 205.253906 254.933594 205.675781 C 254.757812 206.097656 254.628906 206.53125 254.539062 206.976562 C 254.449219 207.425781 254.40625 207.878906 254.40625 208.332031 C 254.40625 208.789062 254.449219 209.242188 254.539062 209.6875 C 254.628906 210.136719 254.757812 210.570312 254.933594 210.992188 C 255.109375 211.410156 255.324219 211.8125 255.578125 212.191406 C 255.828125 212.570312 256.117188 212.921875 256.441406 213.242188 C 256.765625 213.566406 257.113281 213.855469 257.496094 214.105469 C 257.875 214.359375 258.273438 214.574219 258.695312 214.75 C 259.117188 214.921875 259.554688 215.054688 260 215.144531 C 260.449219 215.234375 260.902344 215.277344 261.359375 215.277344 L 303.074219 215.277344 C 303.53125 215.277344 303.984375 215.234375 304.433594 215.144531 C 304.878906 215.054688 305.3125 214.921875 305.734375 214.75 C 306.15625 214.574219 306.558594 214.359375 306.9375 214.105469 C 307.316406 213.855469 307.667969 213.566406 307.992188 213.242188 C 308.316406 212.921875 308.601562 212.570312 308.855469 212.191406 C 309.109375 211.8125 309.324219 211.410156 309.5 210.992188 C 309.671875 210.570312 309.804688 210.136719 309.894531 209.6875 C 309.984375 209.242188 310.027344 208.789062 310.027344 208.332031 C 310.027344 207.878906 309.984375 207.425781 309.894531 206.976562 C 309.804688 206.53125 309.671875 206.097656 309.5 205.675781 C 309.324219 205.253906 309.109375 204.855469 308.855469 204.476562 C 308.601562 204.097656 308.316406 203.746094 307.992188 203.421875 C 307.667969 203.101562 307.316406 202.8125 306.9375 202.558594 C 306.558594 202.304688 306.15625 202.09375 305.734375 201.917969 C 305.3125 201.742188 304.878906 201.609375 304.433594 201.523438 C 303.984375 201.433594 303.53125 201.390625 303.074219 201.390625 Z M 303.074219 201.390625 " fill-opacity="1" fill-rule="nonzero"/><path fill="#000000" d="M 303.074219 312.5 L 261.359375 312.5 C 260.902344 312.5 260.449219 312.542969 260 312.632812 C 259.554688 312.722656 259.117188 312.855469 258.695312 313.027344 C 258.273438 313.203125 257.875 313.417969 257.496094 313.671875 C 257.113281 313.921875 256.765625 314.210938 256.441406 314.535156 C 256.117188 314.855469 255.828125 315.207031 255.578125 315.585938 C 255.324219 315.964844 255.109375 316.367188 254.933594 316.785156 C 254.757812 317.207031 254.628906 317.640625 254.539062 318.089844 C 254.449219 318.535156 254.40625 318.988281 254.40625 319.445312 C 254.40625 319.898438 254.449219 320.351562 254.539062 320.800781 C 254.628906 321.246094 254.757812 321.679688 254.933594 322.101562 C 255.109375 322.523438 255.324219 322.921875 255.578125 323.300781 C 255.828125 323.679688 256.117188 324.03125 256.441406 324.355469 C 256.765625 324.675781 257.113281 324.964844 257.496094 325.21875 C 257.875 325.472656 258.273438 325.6875 258.695312 325.859375 C 259.117188 326.035156 259.554688 326.167969 260 326.253906 C 260.449219 326.34375 260.902344 326.390625 261.359375 326.390625 L 303.074219 326.390625 C 303.53125 326.390625 303.984375 326.34375 304.433594 326.253906 C 304.878906 326.167969 305.3125 326.035156 305.734375 325.859375 C 306.15625 325.6875 306.558594 325.472656 306.9375 325.21875 C 307.316406 324.964844 307.667969 324.675781 307.992188 324.355469 C 308.316406 324.03125 308.601562 323.679688 308.855469 323.300781 C 309.109375 322.921875 309.324219 322.523438 309.5 322.101562 C 309.671875 321.679688 309.804688 321.246094 309.894531 320.800781 C 309.984375 320.351562 310.027344 319.898438 310.027344 319.445312 C 310.027344 318.988281 309.984375 318.535156 309.894531 318.089844 C 309.804688 317.640625 309.671875 317.207031 309.5 316.785156 C 309.324219 316.367188 309.109375 315.964844 308.855469 315.585938 C 308.601562 315.207031 308.316406 314.855469 307.992188 314.535156 C 307.667969 314.210938 307.316406 313.921875 306.9375 313.671875 C 306.558594 313.417969 306.15625 313.203125 305.734375 313.027344 C 305.3125 312.855469 304.878906 312.722656 304.433594 312.632812 C 303.984375 312.542969 303.53125 312.5 303.074219 312.5 Z M 303.074219 312.5 " fill-opacity="1" fill-rule="nonzero"/><path fill="#000000" d="M 289.167969 298.609375 C 289.167969 299.066406 289.125 299.519531 289.035156 299.964844 C 288.945312 300.414062 288.816406 300.847656 288.640625 301.269531 C 288.464844 301.691406 288.25 302.089844 287.996094 302.46875 C 287.742188 302.847656 287.457031 303.199219 287.132812 303.523438 C 286.808594 303.84375 286.457031 304.132812 286.078125 304.386719 C 285.699219 304.636719 285.300781 304.851562 284.878906 305.027344 C 284.457031 305.203125 284.019531 305.332031 283.574219 305.421875 C 283.125 305.511719 282.671875 305.554688 282.214844 305.554688 C 281.761719 305.554688 281.308594 305.511719 280.859375 305.421875 C 280.414062 305.332031 279.976562 305.203125 279.554688 305.027344 C 279.132812 304.851562 278.734375 304.636719 278.355469 304.386719 C 277.972656 304.132812 277.621094 303.84375 277.300781 303.523438 C 276.976562 303.199219 276.6875 302.847656 276.433594 302.46875 C 276.179688 302.089844 275.96875 301.691406 275.792969 301.269531 C 275.617188 300.847656 275.484375 300.414062 275.398438 299.964844 C 275.308594 299.519531 275.261719 299.066406 275.261719 298.609375 C 275.261719 298.15625 275.308594 297.703125 275.398438 297.257812 C 275.484375 296.808594 275.617188 296.375 275.792969 295.953125 C 275.96875 295.53125 276.179688 295.132812 276.433594 294.753906 C 276.6875 294.375 276.976562 294.023438 277.300781 293.699219 C 277.621094 293.378906 277.972656 293.089844 278.355469 292.835938 C 278.734375 292.582031 279.132812 292.371094 279.554688 292.195312 C 279.976562 292.019531 280.414062 291.890625 280.859375 291.800781 C 281.308594 291.710938 281.761719 291.667969 282.214844 291.667969 C 282.671875 291.667969 283.125 291.710938 283.574219 291.800781 C 284.019531 291.890625 284.457031 292.019531 284.878906 292.195312 C 285.300781 292.371094 285.699219 292.582031 286.078125 292.835938 C 286.457031 293.089844 286.808594 293.378906 287.132812 293.699219 C 287.457031 294.023438 287.742188 294.375 287.996094 294.753906 C 288.25 295.132812 288.464844 295.53125 288.640625 295.953125 C 288.816406 296.375 288.945312 296.808594 289.035156 297.257812 C 289.125 297.703125 289.167969 298.15625 289.167969 298.609375 Z M 289.167969 298.609375 " fill-opacity="1" fill-rule="nonzero"/><path fill="#000000" d="M 289.167969 340.277344 C 289.167969 340.734375 289.125 341.183594 289.035156 341.632812 C 288.945312 342.078125 288.816406 342.515625 288.640625 342.933594 C 288.464844 343.355469 288.25 343.757812 287.996094 344.136719 C 287.742188 344.515625 287.457031 344.867188 287.132812 345.1875 C 286.808594 345.511719 286.457031 345.796875 286.078125 346.050781 C 285.699219 346.304688 285.300781 346.519531 284.878906 346.695312 C 284.457031 346.867188 284.019531 347 283.574219 347.089844 C 283.125 347.175781 282.671875 347.222656 282.214844 347.222656 C 281.761719 347.222656 281.308594 347.175781 280.859375 347.089844 C 280.414062 347 279.976562 346.867188 279.554688 346.695312 C 279.132812 346.519531 278.734375 346.304688 278.355469 346.050781 C 277.972656 345.796875 277.621094 345.511719 277.300781 345.1875 C 276.976562 344.867188 276.6875 344.515625 276.433594 344.136719 C 276.179688 343.757812 275.96875 343.355469 275.792969 342.933594 C 275.617188 342.515625 275.484375 342.078125 275.398438 341.632812 C 275.308594 341.183594 275.261719 340.734375 275.261719 340.277344 C 275.261719 339.820312 275.308594 339.371094 275.398438 338.921875 C 275.484375 338.476562 275.617188 338.042969 275.792969 337.621094 C 275.96875 337.199219 276.179688 336.796875 276.433594 336.417969 C 276.6875 336.039062 276.976562 335.691406 277.300781 335.367188 C 277.621094 335.042969 277.972656 334.757812 278.355469 334.503906 C 278.734375 334.25 279.132812 334.035156 279.554688 333.863281 C 279.976562 333.6875 280.414062 333.554688 280.859375 333.464844 C 281.308594 333.378906 281.761719 333.332031 282.214844 333.332031 C 282.671875 333.332031 283.125 333.378906 283.574219 333.464844 C 284.019531 333.554688 284.457031 333.6875 284.878906 333.863281 C 285.300781 334.035156 285.699219 334.25 286.078125 334.503906 C 286.457031 334.757812 286.808594 335.042969 287.132812 335.367188 C 287.457031 335.691406 287.742188 336.039062 287.996094 336.417969 C 288.25 336.796875 288.464844 337.199219 288.640625 337.621094 C 288.816406 338.042969 288.945312 338.476562 289.035156 338.921875 C 289.125 339.371094 289.167969 339.820312 289.167969 340.277344 Z M 289.167969 340.277344 " fill-opacity="1" fill-rule="nonzero"/><g clip-path="url(#85eb0ab978)"><path fill="#ffffff" d="M 248.484375 131.25 L 313.652344 131.25 L 313.652344 353.742188 L 248.484375 353.742188 Z M 248.484375 131.25 " fill-opacity="1" fill-rule="nonzero"/></g><g clip-path="url(#dbd3a84c0c)"><path fill="#000000" d="M 312.097656 143.539062 C 301.859375 145.011719 292.429688 153.355469 292.429688 153.355469 C 297.09375 151.5625 297.601562 152.753906 297.601562 152.753906 C 291.582031 162.828125 290.4375 175.546875 288.996094 185.789062 C 288.898438 186.464844 279.625 184.765625 279.625 184.765625 L 279.625 152.242188 C 280.644531 151.476562 286.707031 153.011719 286.707031 153.011719 C 281.222656 148.871094 276.132812 134.609375 275.15625 131.75 L 275.148438 131.246094 C 275.148438 131.246094 275.152344 131.335938 275.097656 131.5 C 275.042969 131.335938 275.046875 131.246094 275.046875 131.246094 L 275.046875 131.75 C 274.03125 134.609375 268.917969 148.871094 263.433594 153.011719 C 263.433594 153.011719 269.453125 151.476562 270.46875 152.242188 L 270.46875 184.765625 C 270.46875 184.765625 261.199219 186.464844 261.105469 185.789062 C 259.664062 175.546875 258.5 162.828125 252.480469 152.753906 C 252.480469 152.753906 253 151.5625 257.660156 153.355469 C 257.660156 153.355469 248.238281 145.011719 238 143.539062 C 236.8125 143.367188 254.535156 164.449219 254.957031 195.175781 L 270.644531 192.957031 L 270.558594 215.832031 L 275.050781 216.003906 L 279.542969 215.832031 L 279.460938 192.957031 L 295.144531 195.175781 C 295.566406 164.449219 313.285156 143.367188 312.097656 143.539062 " fill-opacity="1" fill-rule="nonzero"/></g><g clip-path="url(#1f4efe985b)"><path stroke-linecap="butt" transform="matrix(0, -0.0461987, 0.0461987, 0, 270.201755, 258.872297)" fill-opacity="1" fill="#000000" fill-rule="nonzero" stroke-linejoin="miter" d="M 939.920084 216.993327 L 65.132047 216.993327 C 29.366018 216.993327 0.533356 188.076112 0.533356 152.394636 L 0.533356 65.135671 C 0.533356 29.369641 29.366018 0.536979 65.132047 0.536979 L 939.920084 0.536979 C 975.60156 0.536979 1004.518775 29.369641 1004.518775 65.135671 L 1004.518775 152.479189 C 1004.434222 188.076112 975.517006 216.993327 939.920084 216.993327 Z M 939.920084 216.993327 " stroke="#231f20" stroke-width="1" stroke-opacity="1" stroke-miterlimit="10"/></g><g clip-path="url(#bb8facc914)"><path stroke-linecap="butt" transform="matrix(0, -0.0461987, 0.0461987, 0, 270.201755, 301.54618)" fill-opacity="1" fill="#000000" fill-rule="nonzero" stroke-linejoin="miter" d="M 939.879008 216.993327 L 65.090971 216.993327 C 29.409495 216.993327 0.49228 188.076112 0.49228 152.394636 L 0.49228 65.135671 C 0.49228 29.369641 29.409495 0.536979 65.090971 0.536979 L 939.879008 0.536979 C 975.560484 0.536979 1004.477699 29.369641 1004.477699 65.135671 L 1004.477699 152.479189 C 1004.393146 188.076112 975.475931 216.993327 939.879008 216.993327 Z M 939.879008 216.993327 " stroke="#231f20" stroke-width="1" stroke-opacity="1" stroke-miterlimit="10"/></g><g clip-path="url(#7b5cafe3e6)"><path stroke-linecap="butt" transform="matrix(0, -0.0461987, 0.0461987, 0, 270.201755, 344.390368)" fill-opacity="1" fill="#000000" fill-rule="nonzero" stroke-linejoin="miter" d="M 939.88848 216.993327 L 65.100443 216.993327 C 29.418967 216.993327 0.501752 188.076112 0.501752 152.394636 L 0.501752 65.135671 C 0.501752 29.369641 29.418967 0.536979 65.100443 0.536979 L 939.88848 0.536979 C 975.569956 0.536979 1004.487171 29.369641 1004.487171 65.135671 L 1004.487171 152.479189 C 1004.402618 188.076112 975.485402 216.993327 939.88848 216.993327 Z M 939.88848 216.993327 " stroke="#231f20" stroke-width="1" stroke-opacity="1" stroke-miterlimit="10"/></g></svg>